<svg width="623" height="513" viewBox="0 0 623 513" fill="none" xmlns="http://www.w3.org/2000/svg">
<path d="M343.252 473.984L593.334 335.931C595.137 334.976 596.654 333.546 597.728 331.788C598.802 330.031 599.393 328.012 599.439 325.943C599.485 323.873 598.985 321.829 597.99 320.024C596.995 318.219 595.543 316.72 593.785 315.682L351.351 168.016C349.496 166.894 347.385 166.288 345.228 166.258C343.071 166.228 340.944 166.776 339.06 167.846L74.5154 318.796C72.7154 319.786 71.2118 321.254 70.1638 323.044C69.1159 324.834 68.5626 326.879 68.5626 328.963C68.5626 331.048 69.1159 333.093 70.1638 334.883C71.2118 336.673 72.7154 338.14 74.5154 339.131L310.403 473.746C315.418 476.594 321.056 478.109 326.797 478.151C332.539 478.193 338.198 476.759 343.252 473.984V473.984Z" fill="#00275E"/>
<path d="M300.917 268.939C300.917 268.939 250.333 296.454 238.359 362.102C238.359 362.102 287.624 372.737 353.589 317.146" fill="#EB773A"/>
<path d="M300.283 277.311C300.283 277.311 278.706 297.033 272.628 310.952C266.549 324.871 258.616 345.239 258.616 345.239C258.616 345.239 296.609 348.54 332.33 326.266C368.051 303.992 334 262.337 300.283 277.311Z" fill="#FFAE46"/>
<path d="M321.725 270.385C320.423 272.614 298.195 285.376 294.037 303.788L301.285 298.19C301.285 298.19 288.96 315.784 283.733 325.909C283.733 325.909 313.793 313.708 312.858 314.44L304.357 321.008C304.357 321.008 327.22 320.515 342.767 306.357C358.315 292.2 336.939 267.509 336.939 267.509L321.725 270.385Z" fill="#FAD374"/>
<path d="M388.809 270.215C388.809 270.215 384.885 296.165 376.485 302.546C368.085 308.927 340.814 330.078 340.814 330.078L336.288 323.986C336.288 323.986 355.092 289.835 358.415 274.758C361.739 259.682 388.809 270.215 388.809 270.215Z" fill="#68E1FD"/>
<path opacity="0.61" d="M388.809 270.215C388.809 270.215 384.885 296.165 376.485 302.546C368.085 308.927 340.814 330.078 340.814 330.078L336.288 323.986C336.288 323.986 355.092 289.835 358.415 274.758C361.739 259.682 388.809 270.215 388.809 270.215Z" fill="#363636"/>
<path d="M361.655 233.698C361.655 233.698 336.071 230.533 327.687 237.102C319.304 243.67 292.016 264.634 292.016 264.634L296.542 270.726C296.542 270.726 333.9 261.52 349.047 262.354C364.194 263.187 361.655 233.698 361.655 233.698Z" fill="#68E1FD"/>
<path opacity="0.61" d="M361.655 233.698C361.655 233.698 336.071 230.533 327.687 237.102C319.304 243.67 292.016 264.634 292.016 264.634L296.542 270.726C296.542 270.726 333.9 261.52 349.047 262.354C364.194 263.187 361.655 233.698 361.655 233.698Z" fill="#363636"/>
<path d="M484.484 190.137C491.247 179.372 496.708 167.814 500.75 155.713C500.75 155.713 485.887 155.883 463.676 162.622C465.446 174.142 474.48 183.33 484.484 190.137Z" fill="#68E1FD"/>
<path d="M424.901 236.905C431.959 231.457 432.754 220.415 426.677 212.243C420.6 204.071 409.953 201.862 402.895 207.311C395.838 212.759 395.043 223.801 401.12 231.973C407.197 240.145 417.844 242.353 424.901 236.905Z" fill="#68E1FD"/>
<path d="M552.653 114.976C552.653 114.976 412.707 150.438 341.599 255.428C341.599 255.428 324.899 273.584 332.965 283.675C341.031 293.765 367.918 285.734 367.918 285.734C367.918 285.734 456.277 260.176 552.653 114.976Z" fill="#68E1FD"/>
<path d="M341.599 255.428C341.599 255.428 323.963 253.25 318.219 257.725C312.474 262.2 293.636 276.698 293.636 276.698L296.759 280.901C296.759 280.901 322.51 274.554 332.931 275.133C343.352 275.711 341.599 255.428 341.599 255.428Z" fill="#68E1FD"/>
<path d="M362.841 283.998C362.841 283.998 360.136 301.882 354.341 306.34C348.546 310.799 329.758 325.313 329.758 325.313L326.652 321.161C326.652 321.161 339.611 297.628 341.899 287.231C344.187 276.834 362.841 283.998 362.841 283.998Z" fill="#68E1FD"/>
<path opacity="0.29" d="M341.599 255.428C341.599 255.428 323.963 253.25 318.219 257.725C312.474 262.2 293.636 276.698 293.636 276.698L296.759 280.901C296.759 280.901 322.51 274.554 332.931 275.133C343.352 275.711 341.599 255.428 341.599 255.428Z" fill="#363636"/>
<path opacity="0.29" d="M362.841 283.998C362.841 283.998 360.136 301.882 354.341 306.34C348.546 310.799 329.758 325.313 329.758 325.313L326.652 321.161C326.652 321.161 339.611 297.628 341.899 287.231C344.187 276.834 362.841 283.998 362.841 283.998Z" fill="#363636"/>
<path d="M484.667 140.552C484.667 140.552 484.183 164.664 509.233 173.597L494.704 190.409C494.704 190.409 463.241 172.389 468.118 148.72L484.667 140.552Z" fill="#68E1FD"/>
<path d="M394.805 196.45C394.805 196.45 395.089 237.289 432.463 248.911L404.708 268.241C404.708 268.241 364.628 254.067 372.059 217.737L394.805 196.45Z" fill="#68E1FD"/>
<path d="M462.36 190.562C464.845 188.644 465.333 185.036 463.45 182.504C461.568 179.973 458.027 179.475 455.542 181.393C453.058 183.312 452.569 186.919 454.452 189.451C456.335 191.983 459.875 192.48 462.36 190.562Z" fill="#68E1FD"/>
<path d="M441.862 220.688C448.37 215.714 449.689 206.307 444.808 199.676C439.927 193.045 430.694 191.701 424.187 196.674C417.679 201.648 416.36 211.055 421.241 217.686C426.122 224.317 435.354 225.661 441.862 220.688Z" fill="#68E1FD"/>
<path opacity="0.61" d="M484.667 140.552C484.667 140.552 484.183 164.664 509.233 173.597L494.704 190.409C494.704 190.409 463.241 172.389 468.118 148.72L484.667 140.552Z" fill="#606060"/>
<path opacity="0.61" d="M394.805 196.45C394.805 196.45 395.089 237.289 432.463 248.911L404.708 268.241C404.708 268.241 364.628 254.067 372.059 217.737L394.805 196.45Z" fill="#606060"/>
<path opacity="0.61" d="M462.36 190.562C464.845 188.644 465.333 185.036 463.45 182.504C461.568 179.973 458.027 179.475 455.542 181.393C453.058 183.312 452.569 186.919 454.452 189.451C456.335 191.983 459.875 192.48 462.36 190.562Z" fill="#606060"/>
<path opacity="0.61" d="M441.862 220.688C448.37 215.714 449.689 206.307 444.808 199.676C439.927 193.045 430.694 191.701 424.187 196.674C417.679 201.648 416.36 211.055 421.241 217.686C426.122 224.317 435.354 225.661 441.862 220.688Z" fill="#606060"/>
<path d="M511.521 295.518C511.078 295.518 510.653 295.697 510.34 296.016C510.027 296.336 509.851 296.768 509.851 297.22C509.851 297.671 510.027 298.104 510.34 298.423C510.653 298.742 511.078 298.921 511.521 298.921C511.964 298.921 512.389 298.742 512.702 298.423C513.015 298.104 513.191 297.671 513.191 297.22C513.191 296.768 513.015 296.336 512.702 296.016C512.389 295.697 511.964 295.518 511.521 295.518Z" fill="white"/>
<path d="M426.919 363.294V364.383C426.919 364.834 427.095 365.267 427.408 365.586C427.721 365.905 428.146 366.084 428.589 366.084C429.032 366.084 429.457 365.905 429.77 365.586C430.083 365.267 430.259 364.834 430.259 364.383V363.294C430.259 362.842 430.083 362.409 429.77 362.09C429.457 361.771 429.032 361.592 428.589 361.592C428.146 361.592 427.721 361.771 427.408 362.09C427.095 362.409 426.919 362.842 426.919 363.294Z" fill="white"/>
<path d="M309.952 390.383V391.472C309.952 391.924 310.128 392.356 310.441 392.676C310.754 392.995 311.179 393.174 311.622 393.174C312.065 393.174 312.49 392.995 312.803 392.676C313.116 392.356 313.292 391.924 313.292 391.472V390.383C313.292 389.932 313.116 389.499 312.803 389.18C312.49 388.861 312.065 388.682 311.622 388.682C311.179 388.682 310.754 388.861 310.441 389.18C310.128 389.499 309.952 389.932 309.952 390.383Z" fill="white"/>
<path d="M419.02 307.429C418.577 307.429 418.152 307.609 417.839 307.928C417.526 308.247 417.35 308.68 417.35 309.131C417.35 309.582 417.526 310.015 417.839 310.334C418.152 310.653 418.577 310.833 419.02 310.833C419.463 310.833 419.887 310.653 420.2 310.334C420.514 310.015 420.69 309.582 420.69 309.131C420.69 308.68 420.514 308.247 420.2 307.928C419.887 307.609 419.463 307.429 419.02 307.429Z" fill="white"/>
<path d="M219.121 304.145C218.678 304.145 218.253 304.325 217.94 304.644C217.627 304.963 217.451 305.396 217.451 305.847C217.451 306.298 217.627 306.731 217.94 307.05C218.253 307.369 218.678 307.549 219.121 307.549C219.564 307.549 219.988 307.369 220.302 307.05C220.615 306.731 220.791 306.298 220.791 305.847C220.791 305.396 220.615 304.963 220.302 304.644C219.988 304.325 219.564 304.145 219.121 304.145Z" fill="white"/>
<path d="M144.071 309.131V310.22C144.071 310.671 144.247 311.104 144.56 311.423C144.873 311.742 145.298 311.922 145.741 311.922C146.184 311.922 146.609 311.742 146.922 311.423C147.235 311.104 147.411 310.671 147.411 310.22V309.131C147.411 308.68 147.235 308.247 146.922 307.928C146.609 307.609 146.184 307.429 145.741 307.429C145.298 307.429 144.873 307.609 144.56 307.928C144.247 308.247 144.071 308.68 144.071 309.131Z" fill="white"/>
<path d="M179.775 362.681C179.333 362.681 178.908 362.86 178.595 363.179C178.281 363.498 178.105 363.931 178.105 364.383C178.105 364.834 178.281 365.267 178.595 365.586C178.908 365.905 179.333 366.084 179.775 366.084C180.218 366.084 180.643 365.905 180.956 365.586C181.27 365.267 181.445 364.834 181.445 364.383C181.445 363.931 181.27 363.498 180.956 363.179C180.643 362.86 180.218 362.681 179.775 362.681Z" fill="white"/>
<path d="M235.069 266.25C234.626 266.25 234.201 266.43 233.888 266.749C233.575 267.068 233.399 267.501 233.399 267.952C233.399 268.403 233.575 268.836 233.888 269.155C234.201 269.474 234.626 269.654 235.069 269.654C235.512 269.654 235.937 269.474 236.25 269.155C236.563 268.836 236.739 268.403 236.739 267.952C236.739 267.501 236.563 267.068 236.25 266.749C235.937 266.43 235.512 266.25 235.069 266.25Z" fill="white"/>
<path d="M316.933 212.088C316.49 212.088 316.065 212.267 315.752 212.586C315.439 212.905 315.263 213.338 315.263 213.789C315.263 214.241 315.439 214.673 315.752 214.993C316.065 215.312 316.49 215.491 316.933 215.491C317.376 215.491 317.8 215.312 318.113 214.993C318.427 214.673 318.603 214.241 318.603 213.789C318.603 213.338 318.427 212.905 318.113 212.586C317.8 212.267 317.376 212.088 316.933 212.088Z" fill="white"/>
<path d="M366.916 424.433C366.473 424.433 366.048 424.612 365.735 424.931C365.422 425.25 365.246 425.683 365.246 426.134C365.246 426.586 365.422 427.018 365.735 427.337C366.048 427.657 366.473 427.836 366.916 427.836C367.359 427.836 367.783 427.657 368.097 427.337C368.41 427.018 368.586 426.586 368.586 426.134C368.586 425.683 368.41 425.25 368.097 424.931C367.783 424.612 367.359 424.433 366.916 424.433Z" fill="white"/>
<path d="M477.486 328.785C466.748 328.785 466.715 345.801 477.486 345.801C488.258 345.801 488.258 328.785 477.486 328.785Z" fill="#FFAE46"/>
<path d="M177.655 319.034C166.917 319.034 166.883 336.051 177.655 336.051C188.426 336.051 188.409 319.034 177.655 319.034Z" fill="#FFAE46"/>
<path d="M337.724 430.95C336.158 429.355 334.035 428.459 331.821 428.459C329.607 428.459 327.483 429.355 325.917 430.95C324.382 432.569 323.51 434.723 323.479 436.974V438.063C323.503 440.315 324.376 442.471 325.917 444.086C327.483 445.681 329.607 446.577 331.821 446.577C334.035 446.577 336.158 445.681 337.724 444.086C339.259 442.468 340.131 440.313 340.162 438.063V436.974C340.138 434.721 339.265 432.565 337.724 430.95V430.95Z" fill="#00AEE1"/>
<path d="M184.952 203.307C205.059 203.307 221.358 186.699 221.358 166.212C221.358 145.725 205.059 129.117 184.952 129.117C164.846 129.117 148.547 145.725 148.547 166.212C148.547 186.699 164.846 203.307 184.952 203.307Z" fill="#68E1FD"/>
<path d="M214.562 145.81C218.403 144.73 222.307 143.901 226.252 143.325C228.232 143.019 230.228 142.826 232.23 142.747C234.308 142.628 236.393 142.754 238.443 143.121C239.628 143.326 240.763 143.765 241.783 144.414C242.397 144.827 242.921 145.366 243.319 145.997C243.737 146.685 243.978 147.469 244.02 148.277C244.035 149.613 243.732 150.933 243.135 152.123C242.663 153.135 242.104 154.103 241.465 155.016C238.933 158.329 236.005 161.307 232.748 163.881C226.497 168.952 219.857 173.504 212.892 177.494C206.001 181.553 198.905 185.24 191.633 188.537C184.359 191.891 176.891 194.789 169.271 197.216C165.432 198.465 161.53 199.504 157.581 200.33C153.536 201.234 149.425 201.809 145.29 202.048C143.172 202.159 141.047 202.073 138.944 201.793C136.694 201.533 134.504 200.889 132.464 199.887C131.344 199.338 130.318 198.608 129.425 197.726C128.423 196.717 127.703 195.454 127.338 194.068C127.015 192.743 127.015 191.359 127.338 190.035C127.612 188.884 128.033 187.774 128.59 186.734C130.791 183.112 133.621 179.93 136.94 177.341C140.006 174.754 143.286 172.442 146.743 170.432C143.878 173.128 141.147 175.968 138.56 178.94C135.972 181.753 133.826 184.955 132.197 188.435C131.541 189.762 131.387 191.288 131.763 192.723C131.979 193.256 132.323 193.725 132.765 194.085C133.337 194.538 133.966 194.91 134.635 195.191C137.958 196.313 141.486 196.656 144.956 196.195C152.52 195.299 159.963 193.552 167.15 190.988C174.498 188.571 181.663 185.543 188.86 182.48C203.103 176.263 216.735 168.685 229.575 159.848C232.659 157.677 235.508 155.178 238.075 152.395C238.645 151.743 239.159 151.043 239.612 150.302C239.967 149.733 240.205 149.096 240.313 148.43C240.328 148.203 240.284 147.976 240.184 147.773C240.084 147.57 239.932 147.397 239.745 147.273C239.114 146.806 238.408 146.454 237.658 146.235C233.964 145.33 230.163 144.964 226.369 145.146C222.411 145.163 218.486 145.401 214.562 145.81Z" fill="#8CC63F"/>
</svg>
