<svg width="554" height="439" viewBox="0 0 554 439" fill="none" xmlns="http://www.w3.org/2000/svg">
<path d="M34.5032 107.959C-11.2523 102.47 4.20711 40.8931 0.503203 -5.04129C-17.0583 -222.833 430.037 -180.684 560.003 -5.04129C656.171 124.925 633.179 553.128 560.003 408.959C529.824 349.501 566.417 205.724 512.503 244.959C480.831 268.008 511.573 319.628 477.503 338.959C425.672 368.368 489.851 181.338 431.503 193.459C390.779 201.919 412.21 272.916 371.503 281.459C314.108 293.504 365.623 125.864 310.003 144.459C273.702 156.595 295.498 215.444 259.503 228.459C202.442 249.091 264.262 69.919 205.003 82.9587C168.743 90.9376 180.342 150.835 143.503 155.459C89.8168 162.198 157.088 21.3741 103.003 22.9587C60.3895 24.2072 76.8318 113.036 34.5032 107.959Z" fill="white"/>
</svg>
